<?xml version="1.0" standalone="no"?>
<!DOCTYPE svg PUBLIC "-//W3C//DTD SVG 20010904//EN"
 "http://www.w3.org/TR/2001/REC-SVG-20010904/DTD/svg10.dtd">
<svg version="1.0" xmlns="http://www.w3.org/2000/svg"
 width="413.000000pt" height="413.000000pt" viewBox="0 0 413.000000 413.000000"
 preserveAspectRatio="xMidYMid meet">
<metadata>
Created by potrace 1.14, written by Peter Selinger 2001-2017
</metadata>
<g transform="translate(0.000000,413.000000) scale(0.100000,-0.100000)"
fill="#000000" stroke="none">
<path d="M3750 3532 c-14 -2 -32 -10 -40 -17 -8 -8 -19 -14 -23 -14 -13 0 -47
-48 -40 -55 3 -3 1 -6 -6 -6 -7 0 -11 -7 -8 -15 4 -8 2 -17 -3 -20 -11 -7 -3
-49 15 -86 17 -31 20 -83 6 -75 -5 4 -12 -7 -16 -24 -4 -16 -11 -30 -16 -30
-6 0 -7 -4 -4 -10 3 -5 1 -10 -4 -10 -6 0 -10 -3 -9 -7 1 -5 -3 -18 -10 -30
-7 -13 -10 -23 -6 -23 4 0 -3 -8 -14 -19 -12 -10 -19 -21 -15 -24 3 -4 0 -14
-8 -23 -7 -9 -14 -23 -15 -31 -2 -8 -10 -23 -20 -34 -9 -10 -13 -19 -9 -19 4
0 1 -8 -8 -17 -8 -10 -16 -20 -17 -23 -6 -32 -14 -50 -23 -50 -6 0 -7 -3 -4
-7 4 -3 1 -13 -7 -22 -8 -9 -15 -19 -15 -23 -2 -15 -36 -83 -45 -89 -5 -4 -5
-12 -2 -18 4 -6 4 -11 -1 -11 -10 0 -43 -57 -43 -75 0 -7 -7 -18 -15 -25 -8
-7 -13 -16 -10 -20 3 -4 -2 -13 -10 -20 -8 -7 -12 -16 -10 -21 3 -4 0 -11 -7
-16 -7 -4 -13 -12 -13 -18 -1 -15 -39 -89 -47 -93 -5 -2 -8 -12 -8 -23 0 -10
-5 -19 -11 -19 -5 0 -7 -4 -4 -10 3 -5 1 -10 -4 -10 -6 0 -10 -3 -9 -7 2 -11
-35 -87 -44 -91 -5 -2 -8 -12 -8 -23 0 -10 -4 -19 -10 -19 -5 0 -9 -3 -8 -7 2
-12 -14 -46 -29 -61 -7 -8 -11 -18 -7 -23 3 -5 -2 -12 -10 -15 -10 -4 -40 20
-89 68 -69 70 -97 108 -79 108 5 0 14 16 21 35 7 21 17 33 23 29 6 -4 8 -2 5
3 -4 6 3 30 16 54 28 57 57 97 57 81 0 -9 8 -9 35 2 19 8 35 12 35 9 0 -3 9 4
20 17 11 13 20 27 20 32 0 5 5 6 10 3 6 -3 10 1 10 9 0 21 0 21 10 57 15 51
-41 149 -84 149 -8 0 -17 4 -20 8 -3 5 -25 8 -50 7 -34 0 -56 -8 -85 -30 -21
-17 -37 -33 -34 -37 2 -5 -1 -8 -7 -8 -7 0 -10 -7 -6 -15 3 -8 2 -15 -2 -15
-17 0 -12 -72 8 -112 11 -23 16 -44 11 -47 -5 -3 -11 -15 -13 -26 -1 -11 -7
-23 -12 -27 -5 -3 -11 -15 -12 -25 -2 -9 -8 -19 -14 -21 -5 -2 -8 -7 -6 -11 3
-3 -4 -17 -13 -30 l-18 -24 -207 208 c-175 175 -206 210 -200 228 4 12 12 25
18 29 6 4 7 8 2 8 -5 0 -1 9 9 20 14 16 20 17 27 8 5 -9 8 -10 8 -1 0 6 9 10
20 8 11 -2 20 -1 20 3 0 4 16 18 35 31 19 13 32 27 29 32 -3 5 0 9 5 9 6 0 11
7 11 15 0 8 4 15 8 15 11 0 7 68 -7 103 -13 34 -55 77 -75 77 -8 0 -18 5 -21
10 -4 6 -11 8 -16 5 -5 -4 -9 -1 -9 6 0 8 -4 8 -12 2 -7 -6 -21 -9 -30 -8 -10
2 -18 -1 -18 -6 0 -5 -8 -9 -18 -9 -19 0 -63 -43 -77 -75 -14 -34 -11 -99 8
-133 9 -18 14 -39 10 -45 -22 -36 -28 -32 -118 58 -104 106 -128 123 -153 103
-13 -11 -15 -11 -7 2 8 13 7 13 -10 0 -42 -33 -250 -244 -247 -252 2 -7 -13
-12 -30 -9 -5 0 -8 -3 -8 -9 0 -12 -98 -110 -110 -110 -6 0 -9 -3 -8 -8 2 -4
-17 -27 -42 -51 -25 -24 -44 -48 -42 -52 2 -8 -13 -13 -30 -10 -5 0 -8 -3 -8
-8 0 -5 -28 -38 -62 -72 -35 -34 -62 -66 -60 -71 1 -4 -2 -8 -8 -8 -20 0 -25
-3 -39 -24 -8 -11 -21 -25 -28 -29 -7 -5 -11 -12 -8 -18 6 -8 -8 -13 -27 -10
-5 0 -8 -3 -8 -8 0 -5 -46 -56 -102 -112 -57 -57 -102 -106 -100 -111 1 -4 -2
-8 -8 -8 -20 0 -25 -3 -39 -24 -8 -11 -21 -25 -28 -29 -7 -5 -11 -12 -8 -18 4
-5 1 -9 -6 -9 -15 0 -155 -141 -151 -152 2 -7 -13 -12 -31 -9 -4 0 -7 -3 -7
-9 0 -5 -46 -55 -102 -111 -57 -56 -102 -106 -101 -111 3 -7 -12 -12 -29 -9
-5 0 -8 -3 -8 -8 0 -6 -64 -74 -142 -152 -79 -79 -142 -146 -141 -151 3 -7
-12 -12 -30 -9 -4 0 -7 -3 -7 -7 0 -5 -27 -37 -59 -71 -55 -58 -59 -65 -50
-93 4 -17 11 -33 14 -36 3 -4 200 -6 438 -7 238 0 438 -4 446 -9 9 -6 12 -5 8
0 -7 13 453 12 472 0 9 -6 12 -5 8 0 -7 12 2053 12 2072 0 9 -6 12 -5 8 0 -3
6 68 10 190 10 223 -1 240 4 234 72 0 7 -196 208 -434 446 -344 344 -432 437
-425 450 5 9 6 16 3 16 -4 0 1 7 9 16 9 8 14 20 11 25 -4 5 -1 9 5 9 6 0 9 4
5 9 -3 5 -1 12 4 15 11 7 106 199 103 209 -1 4 3 7 9 7 6 0 8 7 5 16 -3 8 -2
13 2 10 4 -2 20 24 35 57 16 34 33 70 38 80 5 9 14 27 21 40 6 12 15 29 20 37
5 8 11 23 14 33 4 9 11 17 17 17 6 0 8 3 4 6 -5 6 12 44 85 188 6 10 32 61 59
113 27 52 49 100 49 107 0 8 7 19 15 26 8 7 13 16 10 20 -3 4 2 10 10 14 8 3
15 12 15 20 0 22 32 86 42 86 5 0 7 4 3 9 -3 6 2 14 12 20 20 10 24 11 52 11
11 0 26 7 34 15 8 8 17 11 21 8 3 -3 9 3 13 13 4 10 13 24 20 29 8 6 15 23 17
38 1 15 5 30 9 33 3 3 2 16 -3 29 -5 13 -6 26 -3 29 4 3 1 6 -5 6 -7 0 -12 5
-12 12 0 19 -52 68 -72 68 -10 0 -18 4 -18 8 0 8 -27 10 -70 4z"/>
</g>
</svg>
